<svg width="35" height="35" viewBox="0 0 35 35" fill="none" xmlns="http://www.w3.org/2000/svg">
<path d="M27.7083 35H7.29167C5.35851 34.9977 3.50519 34.2287 2.13824 32.8618C0.771286 31.4948 0.00231563 29.6415 0 27.7083L0 7.29167C0.00231563 5.35851 0.771286 3.50519 2.13824 2.13824C3.50519 0.771286 5.35851 0.00231563 7.29167 0L27.7083 0C29.6415 0.00231563 31.4948 0.771286 32.8618 2.13824C34.2287 3.50519 34.9977 5.35851 35 7.29167V27.7083C34.9977 29.6415 34.2287 31.4948 32.8618 32.8618C31.4948 34.2287 29.6415 34.9977 27.7083 35ZM7.29167 2.91667C6.13134 2.91667 5.01855 3.3776 4.19807 4.19807C3.3776 5.01855 2.91667 6.13134 2.91667 7.29167V27.7083C2.91667 28.8687 3.3776 29.9815 4.19807 30.8019C5.01855 31.6224 6.13134 32.0833 7.29167 32.0833H27.7083C28.8687 32.0833 29.9815 31.6224 30.8019 30.8019C31.6224 29.9815 32.0833 28.8687 32.0833 27.7083V7.29167C32.0833 6.13134 31.6224 5.01855 30.8019 4.19807C29.9815 3.3776 28.8687 2.91667 27.7083 2.91667H7.29167ZM17.5 23.3333C16.4325 23.3344 15.4016 22.9443 14.6023 22.2367C14.1254 21.8123 13.6733 21.3996 13.3773 21.1035L9.1875 16.9852C8.92966 16.7108 8.78797 16.3472 8.79212 15.9706C8.79626 15.5941 8.9459 15.2337 9.20972 14.965C9.47354 14.6963 9.83108 14.54 10.2075 14.529C10.5839 14.5179 10.95 14.6529 11.2292 14.9056L15.4292 19.0312C15.7033 19.304 16.1117 19.6744 16.536 20.0521C16.8025 20.2871 17.1455 20.4167 17.5007 20.4167C17.856 20.4167 18.199 20.2871 18.4654 20.0521C18.8883 19.6758 19.2967 19.3054 19.5621 19.0415L23.7708 14.9056C23.9054 14.7624 24.0674 14.6479 24.2473 14.5689C24.4272 14.4899 24.6212 14.4481 24.8177 14.4459C25.0141 14.4437 25.209 14.4813 25.3906 14.5563C25.5721 14.6314 25.7367 14.7423 25.8743 14.8825C26.012 15.0227 26.1199 15.1892 26.1915 15.3722C26.2632 15.5551 26.2972 15.7506 26.2914 15.947C26.2856 16.1434 26.2402 16.3366 26.1579 16.515C26.0756 16.6934 25.9581 16.8533 25.8125 16.9852L21.614 21.1108C21.3223 21.4025 20.8746 21.8108 20.3992 22.2323C19.6004 22.9422 18.5687 23.334 17.5 23.3333Z" fill="#FBFBFB"/>
</svg>
